<?xml version="1.0" encoding="utf-8"?>
<!-- Generator: Adobe Illustrator 28.2.0, SVG Export Plug-In . SVG Version: 6.00 Build 0)  -->
<svg version="1.1" id="Layer_1" xmlns="http://www.w3.org/2000/svg" xmlns:xlink="http://www.w3.org/1999/xlink" x="0px" y="0px"
	 viewBox="0 0 176.38 59.04" style="enable-background:new 0 0 176.38 59.04;" xml:space="preserve">
<style type="text/css">
	.st0{fill:url(#SVGID_1_);}
	.st1{fill:url(#SVGID_00000044888471496998936780000001858573714330909078_);}
	.st2{fill:url(#SVGID_00000065072978247002925100000016119402595125432466_);}
	.st3{fill:url(#SVGID_00000027599908653863165120000001444332094410477742_);}
	.st4{fill:url(#SVGID_00000175304904401363318210000004567746785792450187_);}
	.st5{fill:url(#SVGID_00000099628493002028629250000001823889281883897217_);}
	.st6{fill:url(#SVGID_00000039129238236802923320000005108286546675922353_);}
</style>
<g>
	<linearGradient id="SVGID_1_" gradientUnits="userSpaceOnUse" x1="111.9036" y1="-4.8453" x2="111.9036" y2="66.4241">
		<stop  offset="0" style="stop-color:#8F28EC"/>
		<stop  offset="1" style="stop-color:#5C0EFA"/>
	</linearGradient>
	<path class="st0" d="M128.12,58.93H97.85c-3.52-6.68-2.95-16.22,3.13-21.21c4.96-4.07,11.13-4.1,17.1-5.56
		c0.66-5.13-0.68-10.8-6.98-10.22c-2.59,0.24-3.83,2.3-5.79,3.61c-2.87,1.91-6.11,2.6-9.55,2.46c-0.27-9.32,7.81-16.73,17.03-16.31
		c2.03,0.09,4,0.6,5.82,1.43c5.84,2.69,9.53,8.6,9.53,15.03L128.12,58.93z M118.1,42.63c-3.89,1.11-9.91,0.63-11.85,4.97
		c-2.17,4.87,2.19,10.91,7.67,9.14c2.06-0.67,4.18-3.24,4.18-5.43V42.63z"/>
	
		<linearGradient id="SVGID_00000023992351821118162440000013406393712555483789_" gradientUnits="userSpaceOnUse" x1="51.6836" y1="-4.8453" x2="51.6836" y2="66.4241">
		<stop  offset="0" style="stop-color:#8F28EC"/>
		<stop  offset="1" style="stop-color:#5C0EFA"/>
	</linearGradient>
	<path style="fill:url(#SVGID_00000023992351821118162440000013406393712555483789_);" d="M37.37,58.93
		c-1.09-2.51-2.06-5.16-1.88-7.94h7.41c0.66,0,1.72,0.88,1.99,1.15c1.52,1.52,1.75,2.84,3.57,3.95c3.93,2.4,11.69-0.06,8.84-5.3
		c-2.4-4.41-12.62-7.3-16.8-10.98c-8.37-7.39-6.01-20.53,4.04-25.01c10.89-4.85,23.4,2.68,23.32,14.67h-6.79
		c-2.33,0-4.36-4.1-6.3-5.18c-5.2-2.9-12.22,2.29-7.99,7.58c3.61,4.52,11.28,5.57,15.87,9.2c5.44,4.29,6.61,11.65,3.96,17.87H37.37z
		"/>
	
		<linearGradient id="SVGID_00000022560566489888476180000012622803791412379306_" gradientUnits="userSpaceOnUse" x1="81.7706" y1="-4.8453" x2="81.7706" y2="66.4241">
		<stop  offset="0" style="stop-color:#8F28EC"/>
		<stop  offset="1" style="stop-color:#5C0EFA"/>
	</linearGradient>
	<path style="fill:url(#SVGID_00000022560566489888476180000012622803791412379306_);" d="M78.64,58.93
		c-0.16-0.71-0.58-1.31-0.84-1.98c-0.28-0.73-1.04-2.9-1.04-3.56V23.72l-0.31-0.31H70.7V13.37h6.05V0h4.7
		c2.14,0,5.32,4.04,5.32,6.17v7.21h6.05v10.03h-6.05v28.53c0,0.45,0.84,2.15,1.17,2.59c1.17,1.6,3.54,2.33,4.26,4.41H78.64z"/>
	
		<linearGradient id="SVGID_00000016787054450596662650000009347052215183940263_" gradientUnits="userSpaceOnUse" x1="135.966" y1="-4.7396" x2="135.966" y2="66.5298">
		<stop  offset="0" style="stop-color:#8F28EC"/>
		<stop  offset="1" style="stop-color:#5C0EFA"/>
	</linearGradient>
	<path style="fill:url(#SVGID_00000016787054450596662650000009347052215183940263_);" d="M130.96,59.04l0.02-39.59
		c0.09-2.39,0.66-5.97,5.72-5.97h4.28v45.56H130.96z"/>
	
		<linearGradient id="SVGID_00000057121502401012228150000000979989487649496469_" gradientUnits="userSpaceOnUse" x1="137.3903" y1="-1.7499" x2="137.3903" y2="69.5195">
		<stop  offset="0" style="stop-color:#8F28EC"/>
		<stop  offset="1" style="stop-color:#5C0EFA"/>
	</linearGradient>
	<path style="fill:url(#SVGID_00000057121502401012228150000000979989487649496469_);" d="M141.04,1.5
		c5.05,4.7-2.23,12.65-7.35,7.67C128.73,4.35,136.04-3.16,141.04,1.5z"/>
	<g>
		<g>
			
				<linearGradient id="SVGID_00000023970645668360270330000005400159488137148037_" gradientUnits="userSpaceOnUse" x1="16.2887" y1="-4.8467" x2="16.2887" y2="66.4243">
				<stop  offset="0" style="stop-color:#8F28EC"/>
				<stop  offset="1" style="stop-color:#5C0EFA"/>
			</linearGradient>
			<path style="fill:url(#SVGID_00000023970645668360270330000005400159488137148037_);" d="M10.23,43.89h19.98
				c1.3,0,2.36-1.06,2.36-2.36V26.02c0-7.57-6.7-12.57-12.31-13.8C9.65,9.9,0,17.28,0,27.79v18.3c0,3.39,0.49,6.75,1.45,10
				l0.84,2.84h28.19c1.39-2.39,2.17-5.17,2.09-7.94h-6.79c-2.31,0-4.53,4.18-6.3,5.19c-2.73,1.55-6.1,0.95-7.97-1.57
				c-0.27-0.37-1.29-1.52-1.29-2.47V50.9V43.89z M9.85,33.86v-6.63c0-3.03,2.46-5.49,5.49-5.49h1.73c3.03,0,5.49,2.46,5.49,5.49
				v6.63H9.85z"/>
		</g>
	</g>
	<g>
		<g>
			
				<linearGradient id="SVGID_00000053546059337501191490000006979614574345402038_" gradientUnits="userSpaceOnUse" x1="160.092" y1="-4.741" x2="160.092" y2="66.5299">
				<stop  offset="0" style="stop-color:#8F28EC"/>
				<stop  offset="1" style="stop-color:#5C0EFA"/>
			</linearGradient>
			<path style="fill:url(#SVGID_00000053546059337501191490000006979614574345402038_);" d="M154.03,43.99h19.98
				c1.3,0,2.36-1.06,2.36-2.36V26.12c0-7.57-6.7-12.57-12.31-13.8C153.45,10,143.8,17.38,143.8,27.9v18.3c0,3.39,0.49,6.75,1.45,10
				l0.84,2.84h28.19c1.39-2.39,2.17-5.17,2.09-7.94h-6.79c-2.31,0-4.53,4.18-6.3,5.19c-2.73,1.55-6.1,0.95-7.97-1.57
				c-0.27-0.37-1.29-1.52-1.29-2.47v-1.24V43.99z M153.65,33.96v-6.63c0-3.03,2.46-5.49,5.49-5.49h1.73c3.03,0,5.49,2.46,5.49,5.49
				v6.63H153.65z"/>
		</g>
	</g>
</g>
</svg>
